<?xml version="1.0" encoding="UTF-8" standalone="no"?>
<!DOCTYPE svg PUBLIC "-//W3C//DTD SVG 1.1//EN"
 "http://www.w3.org/Graphics/SVG/1.1/DTD/svg11.dtd">
<!-- Generated by graphviz version 2.38.0 (20140413.2041)
 -->
<!-- Title: models_diagram Pages: 1 -->
<svg width="435pt" height="158pt"
 viewBox="0.00 0.00 435.34 158.00" xmlns="http://www.w3.org/2000/svg" xmlns:xlink="http://www.w3.org/1999/xlink">
<g id="graph0" class="graph" transform="scale(1 1) rotate(0) translate(4 154)">
<title>models_diagram</title>
<polygon fill="none" stroke="none" points="-4,4 -4,-154 431.343,-154 431.343,4 -4,4"/>
<!-- _diagram_info -->
<g id="node1" class="node"><title>_diagram_info</title>
<text text-anchor="start" x="8" y="-135.6" font-family="Times,serif" font-size="13.00">Models diagram</text>
<text text-anchor="start" x="8" y="-121.6" font-family="Times,serif" font-size="13.00">Date: Apr 03 2017 &#45; 19:09</text>
<text text-anchor="start" x="8" y="-107.6" font-family="Times,serif" font-size="13.00">Migration version: 0</text>
<text text-anchor="start" x="8" y="-93.6" font-family="Times,serif" font-size="13.00">Generated by RailRoady 1.5.2</text>
<text text-anchor="start" x="8" y="-79.6" font-family="Times,serif" font-size="13.00">http://railroady.prestonlee.com</text>
</g>
<!-- Tweet -->
<g id="node2" class="node"><title>Tweet</title>
<ellipse fill="none" stroke="black" cx="227" cy="-18" rx="32.4942" ry="18"/>
<text text-anchor="middle" x="227" y="-14.3" font-family="Times,serif" font-size="14.00">Tweet</text>
</g>
<!-- ApplicationRecord -->
<g id="node3" class="node"><title>ApplicationRecord</title>
<ellipse fill="none" stroke="black" cx="350" cy="-111" rx="77.1866" ry="18"/>
<text text-anchor="middle" x="350" y="-107.3" font-family="Times,serif" font-size="14.00">ApplicationRecord</text>
</g>
<!-- User -->
<g id="node4" class="node"><title>User</title>
<ellipse fill="none" stroke="black" cx="227" cy="-111" rx="27.0966" ry="18"/>
<text text-anchor="middle" x="227" y="-107.3" font-family="Times,serif" font-size="14.00">User</text>
</g>
<!-- User&#45;&gt;Tweet -->
<g id="edge1" class="edge"><title>User&#45;&gt;Tweet</title>
<path fill="none" stroke="#70cd30" d="M227,-84.7285C227,-72.7246 227,-58.3622 227,-46.1291"/>
<ellipse fill="none" stroke="#70cd30" cx="227" cy="-88.8836" rx="4" ry="4"/>
<polygon fill="#70cd30" stroke="#70cd30" points="227,-46.0397 231.5,-36.0396 227,-41.0397 227,-36.0397 227,-36.0397 227,-36.0397 227,-41.0397 222.5,-36.0397 227,-46.0397 227,-46.0397"/>
</g>
</g>
</svg>
